<svg width="142" height="44" viewBox="0 0 142 44" fill="none" xmlns="http://www.w3.org/2000/svg">
<g opacity="0.3" clip-path="url(#clip0_1_1117)">
<path d="M88.0744 34.0851C79.8324 40.1764 67.8862 43.4263 57.6006 43.4263C43.1787 43.4263 30.1952 38.0779 20.3727 29.1824C19.601 28.4829 20.2925 27.5296 21.2185 28.0743C31.8189 34.2585 44.9259 37.9788 58.465 37.9788C67.596 37.9788 77.6407 36.0846 86.8767 32.1538C88.272 31.5595 89.4388 33.0699 88.0744 34.0851Z" fill="black"/>
<path d="M91.5009 30.1544C90.4513 28.8049 84.5368 29.5168 81.8821 29.8325C81.0733 29.9315 80.9499 29.2258 81.6784 28.7182C86.389 25.394 94.1186 26.3535 95.0199 27.4678C95.9213 28.5882 94.7853 36.357 90.3587 40.065C89.6796 40.6345 89.0314 40.3312 89.3339 39.576C90.3279 37.0875 92.5566 31.51 91.5009 30.1544Z" fill="black"/>
<path d="M82.0672 5.2506V2.01927C82.0672 1.53023 82.4376 1.20215 82.8822 1.20215H97.3103C97.7733 1.20215 98.1437 1.53642 98.1437 2.01927V4.78633C98.1376 5.2506 97.7486 5.85725 97.0572 6.81675L89.5807 17.5198C92.3589 17.4517 95.2915 17.8664 97.8104 19.2902C98.3784 19.6121 98.5327 20.0826 98.5759 20.5468V23.9948C98.5759 24.4653 98.0573 25.0162 97.514 24.7315C93.0751 22.3977 87.1791 22.1439 82.2709 24.7562C81.7709 25.0286 81.2461 24.4839 81.2461 24.0134V20.7387C81.2461 20.2126 81.2523 19.315 81.777 18.5164L90.4389 6.06153H82.9007C82.4376 6.06153 82.0672 5.73345 82.0672 5.2506Z" fill="black"/>
<path d="M29.4353 25.4121H25.0458C24.626 25.3812 24.2926 25.0655 24.2617 24.6631V2.0747C24.2617 1.6228 24.6383 1.26376 25.1075 1.26376H29.2007C29.6267 1.28232 29.9663 1.61042 29.9972 2.01898V4.97175H30.0774C31.1455 2.11802 33.152 0.787109 35.8561 0.787109C38.6034 0.787109 40.3197 2.11802 41.5545 4.97175C42.6164 2.11802 45.0303 0.787109 47.6171 0.787109C49.4569 0.787109 51.4696 1.54852 52.6982 3.25704C54.0873 5.15746 53.8033 7.91833 53.8033 10.3387L53.7971 24.595C53.7971 25.0469 53.4205 25.4121 52.9513 25.4121H48.5679C48.1296 25.3812 47.7777 25.0283 47.7777 24.595V12.623C47.7777 11.6697 47.8641 9.29258 47.6542 8.3888C47.327 6.87218 46.3454 6.44504 45.0735 6.44504C44.0117 6.44504 42.9004 7.15693 42.4497 8.29594C41.999 9.43496 42.0422 11.3416 42.0422 12.623V24.595C42.0422 25.0469 41.6656 25.4121 41.1964 25.4121H36.813C36.3685 25.3812 36.0228 25.0283 36.0228 24.595L36.0166 12.623C36.0166 10.1035 36.4302 6.39552 33.3125 6.39552C30.1577 6.39552 30.2812 10.0107 30.2812 12.623V24.595C30.2812 25.0469 29.9046 25.4121 29.4353 25.4121Z" fill="black"/>
<path d="M110.566 0.787109C117.079 0.787109 120.604 6.39552 120.604 13.5267C120.604 20.4165 116.708 25.8826 110.566 25.8826C104.17 25.8826 100.688 20.2742 100.688 13.2853C100.688 6.25314 104.213 0.787109 110.566 0.787109ZM110.603 5.39888C107.368 5.39888 107.164 9.81875 107.164 12.5734C107.164 15.3343 107.121 21.2275 110.566 21.2275C113.967 21.2275 114.128 16.4733 114.128 13.5763C114.128 11.6697 114.048 9.39163 113.473 7.58406C112.98 6.01173 111.998 5.39888 110.603 5.39888Z" fill="black"/>
<path d="M129.05 25.4121H124.679C124.241 25.3812 123.889 25.0283 123.889 24.595L123.883 2.00041C123.92 1.58566 124.284 1.26376 124.729 1.26376H128.797C129.18 1.28232 129.495 1.54233 129.581 1.89517V5.34936H129.661C130.89 2.2604 132.613 0.787109 135.644 0.787109C137.613 0.787109 139.533 1.49899 140.768 3.44894C141.916 5.2565 141.916 8.29594 141.916 10.4811V24.7002C141.867 25.0964 141.503 25.4121 141.071 25.4121H136.669C136.267 25.3812 135.934 25.084 135.891 24.7002V12.4311C135.891 9.96113 136.175 6.346 133.143 6.346C132.075 6.346 131.094 7.06407 130.606 8.15356C129.989 9.534 129.908 10.9083 129.908 12.4311V24.595C129.902 25.0469 129.519 25.4121 129.05 25.4121Z" fill="black"/>
<path d="M70.5659 14.6223V13.669C67.3926 13.669 64.0402 14.3499 64.0402 18.1012C64.0402 20.0017 65.0219 21.2892 66.7073 21.2892C67.9421 21.2892 69.0472 20.5278 69.7448 19.2898C70.6091 17.767 70.5659 16.337 70.5659 14.6223ZM74.9925 25.3501C74.7024 25.6101 74.2825 25.6286 73.9553 25.4553C72.4983 24.242 72.239 23.6787 71.4364 22.5211C69.0286 24.9849 67.3247 25.7215 64.2007 25.7215C60.5088 25.7215 57.6318 23.4373 57.6318 18.8627C57.6318 15.2908 59.5642 12.8581 62.3116 11.6695C64.6946 10.6172 68.0223 10.4315 70.5659 10.1405V9.57101C70.5659 8.52484 70.6462 7.28679 70.035 6.38301C69.4978 5.57207 68.473 5.2378 67.5716 5.2378C65.8985 5.2378 64.4045 6.09825 64.0402 7.88105C63.9661 8.27724 63.676 8.66723 63.2808 8.6858L59.0209 8.22771C58.6629 8.14724 58.2677 7.85629 58.3665 7.30536C59.3481 2.13027 64.0094 0.570312 68.1828 0.570312C70.319 0.570312 73.1095 1.13982 74.795 2.76168C76.9311 4.76114 76.7273 7.42916 76.7273 10.3324V17.1913C76.7273 19.2526 77.5793 20.1564 78.3819 21.2707C78.6659 21.6669 78.7277 22.1435 78.3696 22.4406C77.4744 23.1897 75.8815 24.5825 75.0049 25.3625L74.9925 25.3501Z" fill="black"/>
<path d="M13.02 14.6223V13.669C9.84669 13.669 6.49432 14.3499 6.49432 18.1012C6.49432 20.0017 7.47595 21.2892 9.1614 21.2892C10.3962 21.2892 11.5013 20.5278 12.1989 19.2898C13.0632 17.767 13.02 16.337 13.02 14.6223ZM17.4466 25.3501C17.1565 25.6101 16.7366 25.6286 16.4094 25.4553C14.9524 24.242 14.6931 23.6787 13.8905 22.5211C11.4827 24.9849 9.77878 25.7215 6.65484 25.7215C2.96292 25.7215 0.0859375 23.4373 0.0859375 18.8627C0.0859375 15.2908 2.01833 12.8581 4.76566 11.6695C7.14874 10.6172 10.4764 10.4315 13.02 10.1405V9.57101C13.02 8.52484 13.1003 7.28679 12.4891 6.38301C11.9519 5.57207 10.9271 5.2378 10.0257 5.2378C8.35264 5.2378 6.85858 6.09825 6.49432 7.88105C6.42024 8.27724 6.13007 8.66723 5.73495 8.6858L1.47504 8.22771C1.11696 8.14724 0.721836 7.85629 0.820617 7.30536C1.80225 2.13027 6.46345 0.570312 10.6369 0.570312C12.7731 0.570312 15.5636 1.13982 17.2491 2.76168C19.3852 4.76114 19.1814 7.42916 19.1814 10.3324V17.1913C19.1814 19.2526 20.0334 20.1564 20.836 21.2707C21.12 21.6669 21.1818 22.1435 20.8237 22.4406C19.9285 23.1897 18.3356 24.5825 17.459 25.3625L17.4466 25.3501Z" fill="black"/>
</g>
<defs>
<clipPath id="clip0_1_1117">
<rect width="142" height="42.9737" fill="white" transform="translate(0 0.512695)"/>
</clipPath>
</defs>
</svg>
