<svg width="124" height="50" viewBox="0 0 124 50" fill="none" xmlns="http://www.w3.org/2000/svg">
<g opacity="0.3">
<path d="M16.0645 11.0078C7.32425 11.0078 0.0410156 14.7159 0.0410156 25.9029C0.0410156 34.7654 4.93846 40.3465 16.2902 40.3465C29.6516 40.3465 30.5082 31.5449 30.5082 31.5449H24.0339C24.0339 31.5449 22.6458 36.2843 15.8952 36.2843C10.3971 36.2843 6.44262 32.5701 6.44262 27.3642H31.1852V24.0974C31.1852 18.9471 27.9157 11.0078 16.0645 11.0078ZM15.8388 15.1829C21.0725 15.1829 24.6404 18.3892 24.6404 23.1947H6.58581C6.58581 18.0931 11.2429 15.1829 15.8388 15.1829Z" fill="black"/>
<path d="M31.181 0.174805V34.7282C31.181 36.6896 31.041 39.4436 31.041 39.4436H37.2161C37.2161 39.4436 37.4378 37.4656 37.4378 35.658C37.4378 35.658 40.4886 40.4309 48.7842 40.4309C57.5199 40.4309 63.4536 34.3661 63.4536 25.6769C63.4536 17.5935 58.0033 11.0922 48.7983 11.0922C40.1786 11.0922 37.5001 15.7469 37.5001 15.7469V0.174805H31.181ZM47.2045 15.3661C53.1366 15.3661 56.9088 19.7688 56.9088 25.6769C56.9088 32.0124 52.5521 36.1571 47.2468 36.1571C40.9154 36.1571 37.5001 31.2136 37.5001 25.7334C37.5001 20.6269 40.5648 15.3661 47.2045 15.3661Z" fill="black"/>
<path d="M78.7998 11.0078C65.6508 11.0078 64.8075 18.2076 64.8075 19.3581H71.3523C71.3523 19.3581 71.6955 15.1547 78.3485 15.1547C82.6717 15.1547 86.0217 17.1335 86.0217 20.9378V22.2919H78.3485C68.1617 22.2919 62.7764 25.272 62.7764 31.3192C62.7764 37.2706 67.7523 40.5088 74.4766 40.5088C83.6408 40.5088 86.5929 35.445 86.5929 35.445C86.5929 37.4591 86.7482 39.4438 86.7482 39.4438H92.5665C92.5665 39.4438 92.3408 36.9837 92.3408 35.4097V21.8053C92.3408 12.8851 85.1457 11.0078 78.7998 11.0078ZM86.0217 26.3542V28.1597C86.0217 30.5145 84.5686 36.3689 76.0141 36.3689C71.3296 36.3689 69.3212 34.031 69.3212 31.3192C69.3212 26.386 76.0849 26.3542 86.0217 26.3542Z" fill="black"/>
<path d="M88.8164 12.1367H96.1793L106.746 33.3066L117.289 12.1367H123.958L104.755 49.8257H97.7591L103.3 39.3194L88.8164 12.1367Z" fill="black"/>
</g>
</svg>
