<svg width="44" height="44" viewBox="0 0 44 44" fill="none" xmlns="http://www.w3.org/2000/svg">
<path d="M5.41797 20.7207L5.48603 24.025L6.10196 26.6793L8.08927 30.1264L10.0596 32.1716L11.1383 32.4813L18.5124 30.055L27.1525 28.8878L32.0663 29.3199L34.935 29.8508L30.5043 25.1956L27.1116 18.9955L25.0665 11.4239L24.7364 5.70703L20.2717 11.6826L15.5655 15.4496L7.38826 19.8666L5.41797 20.7207Z" fill="#FFB3DF"/>
<path d="M40.8038 13.3568C44.2578 21.5001 44.023 29.3846 40.2832 30.9738C36.54 32.563 30.7073 27.2476 27.2534 19.1078C23.7994 10.968 24.0342 3.08001 27.774 1.49085C31.5172 -0.0983214 37.3499 5.21705 40.8038 13.3568Z" fill="#FFB3DF"/>
<path d="M16.6869 30.8721L20.6411 38.3517C21.417 39.8286 20.8419 41.6696 19.365 42.4454C17.8881 43.2213 16.0472 42.6462 15.2713 41.1693L11.0312 33.0976" fill="#FFC800"/>
<path d="M25.4531 13.027L26.2664 16.3959L28.4001 22.1128L30.3465 24.631L33.6848 23.1065L35.3352 19.8805L35.3216 17.2807L34.168 13.9356L32.048 12.6357L29.0636 11.8496L25.4531 13.027Z" fill="white"/>
<path d="M5.10335 20.7683L1.80591 22.9394L0.757812 26.635L1.31589 30.1468L3.45293 32.3451L6.10041 33.6995L8.24765 33.662L10.6365 32.8896L7.80187 30.2251L6.15826 27.2986L5.36197 23.5894L5.41982 20.7207L5.10335 20.7683Z" fill="#FF3B00"/>
<path d="M40.8038 13.3568C44.2578 21.5001 44.023 29.3846 40.2832 30.9738C36.54 32.563 30.7073 27.2476 27.2534 19.1078C23.7994 10.968 24.0342 3.08001 27.774 1.49085C31.5172 -0.0983215 37.3499 5.21705 40.8038 13.3568Z" stroke="black" stroke-width="1.12637" stroke-linecap="round" stroke-linejoin="round"/>
<path d="M4.69531 20.8911C19.0693 15.46 23.9116 7.6639 25.3375 4.5332" stroke="black" stroke-width="1.12637" stroke-linecap="round" stroke-linejoin="round"/>
<path d="M9.80859 33.1755C23.2502 27.3803 32.0059 29.0409 35.7185 30.3374" stroke="black" stroke-width="1.12637" stroke-linecap="round" stroke-linejoin="round"/>
<path d="M9.99552 33.1143C6.61981 34.5673 2.74048 32.9441 1.29083 29.5786C-0.158816 26.2131 1.40653 22.3066 4.78223 20.8535" stroke="black" stroke-width="1.12637" stroke-linecap="round" stroke-linejoin="round"/>
<path d="M16.6869 30.8721L20.6411 38.3517C21.417 39.8286 20.8419 41.6696 19.365 42.4454C17.8881 43.2213 16.0472 42.6462 15.2713 41.1693L11.0312 33.0976" stroke="black" stroke-width="1.12637" stroke-linecap="round" stroke-linejoin="round"/>
<path d="M25.3438 13.1152C26.2796 12.4244 27.4127 11.9786 28.6582 11.8799C32.2245 11.5907 35.3518 14.2484 35.6444 17.8146C35.9132 21.1189 33.6537 24.0488 30.4822 24.692" stroke="black" stroke-width="1.12637" stroke-linecap="round" stroke-linejoin="round"/>
<path d="M10.8906 32.6755C9.35589 32.2468 7.52511 30.2016 6.33409 27.3942C5.20772 24.7399 4.96952 22.1469 5.58545 20.6904" stroke="black" stroke-width="1.12637" stroke-linecap="round" stroke-linejoin="round"/>
</svg>
