<svg width="28" height="48" viewBox="0 0 28 48" fill="none" xmlns="http://www.w3.org/2000/svg">
<path d="M3.42193 20.2648L1.26306 35.3256L0.820312 38.0956L2.09368 38.9152L16.4044 46.3651L18.7865 47.203L20.1586 47.3092L22.1967 46.8408L24.0629 44.821L24.4947 42.6475L26.9609 27.1256L25.1972 29.1308L23.1079 29.7272L20.3818 29.1418L13.4918 25.3582L3.67807 20.1367L3.42193 20.2648Z" fill="#F4B1CF"/>
<path d="M4.08317 19.9669L3.98438 17.6251L7.28854 15.6895L9.87918 15.7992L12.3893 17.2043L26.2426 24.7786L27.1867 26.396L26.5281 28.1121L23.8825 29.4696L20.7577 29.5025L4.08317 19.9669Z" fill="#FDC70A"/>
<path d="M11.657 38.6263L9.96279 37.6713L10.669 33.811L9.8457 31.9338L10.497 29.7603L11.9424 29.2773L13.3658 29.4969L14.3281 30.6641L14.211 32.9511L13.7939 33.9646L12.6998 34.6452L11.657 38.6263Z" fill="#ED3624"/>
<mask id="mask0_3_59819" style="mask-type:luminance" maskUnits="userSpaceOnUse" x="0" y="0" width="28" height="48">
<path d="M27.6294 0H0.369141V48H27.6294V0Z" fill="white"/>
</mask>
<g mask="url(#mask0_3_59819)">
<path d="M3.77638 18.6055L1.09792 35.2763C0.530758 37.5449 2.06392 38.8586 2.77744 39.294C2.77744 39.294 13.8133 45.7194 14.6951 46.1328C22.4963 49.8212 23.6782 44.263 23.6782 44.263L23.6928 44.2338L26.9604 27.1495" stroke="#000001" stroke-width="1.21116" stroke-linecap="round" stroke-linejoin="round"/>
<path d="M23.6392 23.3296L25.5419 24.3322C27.3166 25.269 27.5325 27.1095 26.0213 28.4194C24.5101 29.7294 21.8206 30.0404 20.046 29.1037L5.26689 21.0683C3.49223 20.1316 3.27634 18.2947 4.78754 16.9811C5.56327 16.3078 6.43048 15.7626 8.34419 15.8029" stroke="#000001" stroke-width="1.21116" stroke-linecap="round" stroke-linejoin="round"/>
</g>
<path d="M12.4473 17.373L19.5752 21.0321" stroke="#000001" stroke-width="1.21116" stroke-linecap="round" stroke-linejoin="round"/>
<path d="M14.4382 32.1339C14.6541 30.7252 13.8308 29.4299 12.6013 29.2433C11.3719 29.0567 10.2046 30.0483 9.98872 31.457C9.85699 32.3279 10.1204 33.1512 10.6327 33.7L10.0143 37.7543L11.8768 38.9728L12.6086 34.4904L12.6233 34.4648C13.6405 34.344 14.2516 33.3378 14.4345 32.1339H14.4382Z" stroke="#000001" stroke-width="1.21116" stroke-linecap="round" stroke-linejoin="round"/>
<path d="M14.0658 8.26972L11.9582 19.9093C11.9069 20.3557 11.0104 20.6155 9.96029 20.4911C8.91013 20.3667 8.10147 19.9093 8.1527 19.4629L10.1798 8.51854L10.3518 7.44642C10.8458 3.20187 14.6952 0.161165 18.9434 0.658801C23.1916 1.15644 26.2323 5.00215 25.7346 9.25035L25.6432 10.1322L23.1001 25.4784C23.0489 25.9248 22.1561 26.1846 21.1022 26.0602C20.0521 25.9358 19.2434 25.4748 19.2946 25.032L21.8743 9.35281L21.9914 8.30997C22.2439 6.14744 20.6961 4.18983 18.5372 3.93735C16.3747 3.68487 14.4171 5.23267 14.1646 7.39153L14.0621 8.26972H14.0658Z" fill="white"/>
<path d="M14.0658 8.26972L11.9582 19.9093C11.9069 20.3557 11.0104 20.6155 9.96029 20.4911C8.91013 20.3667 8.10147 19.9093 8.1527 19.4629L10.1798 8.51854L10.3518 7.44642C10.8458 3.20187 14.6952 0.161165 18.9434 0.658801C23.1916 1.15644 26.2323 5.00215 25.7346 9.25035L25.6432 10.1322L23.1001 25.4784C23.0489 25.9248 22.1561 26.1846 21.1022 26.0602C20.0521 25.9358 19.2434 25.4748 19.2946 25.032L21.8743 9.35281L21.9914 8.30997C22.2439 6.14744 20.6961 4.18983 18.5372 3.93735C16.3747 3.68487 14.4171 5.23267 14.1646 7.39153L14.0621 8.26972H14.0658Z" stroke="#000001" stroke-width="1.21116" stroke-linecap="round" stroke-linejoin="round"/>
</svg>
