<svg width="42" height="44" viewBox="0 0 42 44" fill="none" xmlns="http://www.w3.org/2000/svg">
<path d="M34.7065 5.0332H5.71583C-0.621423 5.0332 -0.621423 13.4688 5.71583 13.4688H34.7065V5.0332Z" fill="#FF0C00"/>
<path d="M41.0439 24.0168V32.4524H38.9315V41.4143C38.9315 42.2891 38.2202 43.0004 37.3454 43.0004H5.18257C2.86389 42.8581 1.36314 41.5921 0.964844 38.7826V11.207C1.87525 12.3664 2.871 13.099 3.92365 13.4688H37.3454C38.2202 13.4688 38.9315 14.1801 38.9315 15.055V24.0168H41.0439Z" fill="#FF0C00"/>
<path d="M38.9327 24.0161V14.9119C38.9327 14.1153 38.2855 13.4681 37.4889 13.4681H5.27627C2.97182 13.4681 1.02299 11.6615 0.966085 9.35697C0.909185 7.05248 2.81534 5.02539 5.18381 5.02539H33.2783C34.0677 5.02539 34.715 5.66553 34.715 6.46214V13.4609" stroke="black" stroke-width="1.14512" stroke-linecap="round" stroke-linejoin="round"/>
<path d="M0.957031 9.25V38.7815C0.957031 41.1145 2.84896 42.9993 5.17475 42.9993H37.4514C38.2622 42.9993 38.9237 42.3378 38.9237 41.527V32.4513" stroke="black" stroke-width="1.14512" stroke-linecap="round" stroke-linejoin="round"/>
<path d="M32.6001 24.0169C30.2317 24.0169 28.3184 25.9728 28.3824 28.3556C28.4464 30.7383 30.3881 32.4524 32.6855 32.4524H39.5775C40.3812 32.4524 41.0356 31.7981 41.0356 30.9943V25.4678C41.0356 24.6641 40.3812 24.0098 39.5775 24.0098H32.6001V24.0169Z" stroke="black" stroke-width="1.14512" stroke-linecap="round" stroke-linejoin="round"/>
<path d="M15.5653 36.3985C20.1966 36.3985 23.951 32.644 23.951 28.0127C23.951 23.3814 20.1966 19.627 15.5653 19.627C10.9341 19.627 7.17969 23.3814 7.17969 28.0127C7.17969 32.644 10.9341 36.3985 15.5653 36.3985Z" fill="black"/>
<path d="M15.5673 35.2675C19.574 35.2675 22.822 32.0194 22.822 28.0127C22.822 24.0059 19.574 20.7578 15.5673 20.7578C11.5606 20.7578 8.3125 24.0059 8.3125 28.0127C8.3125 32.0194 11.5606 35.2675 15.5673 35.2675Z" fill="#FFC400"/>
<path d="M17.7211 28.9252V29.0888C17.9416 29.1599 18.155 29.2453 18.2119 29.3377C18.2474 29.4017 18.2545 29.48 18.2332 29.5511C18.0981 29.9921 17.8349 30.3904 17.4651 30.7033C16.9601 31.1372 16.2986 31.379 15.6087 31.379C14.3711 31.379 13.3113 30.618 12.9842 29.544C12.9628 29.4729 12.9699 29.3946 13.0055 29.3306C13.0624 29.231 13.2758 29.1528 13.4963 29.0817V28.8398H11.1562V29.0817C11.3767 29.1528 11.5901 29.2382 11.647 29.3306C11.6684 29.3662 11.6826 29.4089 11.6968 29.4658C11.6968 29.5084 11.711 29.544 11.7181 29.5867C11.7679 29.8214 11.8391 30.0419 11.9315 30.2624C12.152 30.7887 12.5005 31.2652 12.9557 31.6564C13.6812 32.2823 14.6272 32.6237 15.6087 32.6237C16.5902 32.6237 17.5433 32.2752 18.2759 31.6493C18.7382 31.251 19.0867 30.7602 19.3072 30.2197C19.3925 30.0134 19.4566 29.8072 19.4992 29.5867C19.5063 29.5511 19.5135 29.5084 19.5206 29.4658C19.5348 29.416 19.549 29.3662 19.5704 29.3377C19.6273 29.2382 19.8406 29.1599 20.0611 29.0888V28.847H17.7211V28.9252Z" fill="black"/>
<path d="M15.6951 24.3304C15.503 24.3304 15.3466 24.3873 15.183 24.5153V26.7131C15.183 26.9834 15.2114 27.0829 15.4888 27.1683V27.2679H13.5613V27.1683C13.8387 27.0829 13.8672 26.9834 13.8672 26.7131V24.5153C13.8672 24.3019 13.7249 24.1597 13.4617 24.1099L13.3906 24.0957V23.9961L15.0834 23.5195H15.183V24.2735C15.4959 23.8823 15.8658 23.5266 16.3494 23.5266C17.1034 23.5266 17.4305 24.0316 17.4305 24.7642V26.706C17.4305 26.9763 17.459 27.0758 17.7364 27.1612V27.2608H15.8089V27.1612C16.0863 27.0758 16.1147 26.9763 16.1147 26.706V24.8496C16.1147 24.5224 15.9511 24.3233 15.688 24.3233L15.6951 24.3304Z" fill="black"/>
<path d="M4.74219 13.4328L16.4067 1L20.973 5.45249L9.90588 13.4613L4.74219 13.4328Z" fill="#FFAEE0" stroke="black" stroke-width="1.03843" stroke-linecap="round" stroke-linejoin="round"/>
<path d="M25.3111 2.63477L9.77734 13.4602H17.0961L29.0167 8.30351L25.3111 2.63477Z" fill="#FFAEE0" stroke="black" stroke-width="1.03843" stroke-linecap="round" stroke-linejoin="round"/>
<path d="M32.0482 6.96094L17.0977 13.4619L35.0923 13.469L32.0482 6.96094Z" fill="#FFAEE0" stroke="black" stroke-width="1.03843" stroke-linecap="round" stroke-linejoin="round"/>
<path d="M32.6794 29.8842C33.5907 29.8842 34.3295 29.1454 34.3295 28.2341C34.3295 27.3228 33.5907 26.584 32.6794 26.584C31.7681 26.584 31.0293 27.3228 31.0293 28.2341C31.0293 29.1454 31.7681 29.8842 32.6794 29.8842Z" fill="white" stroke="black" stroke-width="0.938858" stroke-miterlimit="10"/>
</svg>
