<svg width="504" height="618" viewBox="0 0 504 618" fill="none" xmlns="http://www.w3.org/2000/svg">
<path opacity="0.1" d="M0 16.5459C0 7.70936 7.16344 0.545898 16 0.545898H487.334C496.171 0.545898 503.334 7.70934 503.334 16.5459V601.546C503.334 610.382 496.171 617.546 487.334 617.546H16C7.16345 617.546 0 610.382 0 601.546V16.5459Z" fill="black"/>
<path opacity="0.3" d="M108.016 314.412H104.314V321.996H93.5189V292.198H108.016C115.376 292.198 120.238 295.945 120.238 303.395C120.238 310.621 114.618 314.412 108.016 314.412ZM109.265 303.439C109.265 301.477 108.061 300.629 106.678 300.629H104.314V306.205H106.678C108.016 306.205 109.265 305.536 109.265 303.439ZM122.444 292.198H133.238V313.163H144.97V321.996H122.444V292.198ZM162.294 303.172L160.109 310.041H164.614L162.384 303.172H162.294ZM168.45 321.996L167.067 317.669H157.655L156.272 321.996H145.701L156.406 292.198H168.718L179.423 321.996H168.45ZM178.085 307.097C178.085 297.73 183.706 291.663 193.296 291.663C199.943 291.663 205.028 295.187 206.366 300.406L196.553 304.421C196.374 302.503 195.527 300.674 193.252 300.674C191.021 300.674 189.148 302.413 189.148 307.097C189.148 311.781 191.021 313.565 193.252 313.565C195.527 313.565 196.374 311.691 196.553 309.729L206.366 313.743C205.028 319.007 199.943 322.531 193.296 322.531C183.706 322.531 178.085 316.464 178.085 307.097ZM231.455 313.208V321.996H208.215V292.198H231.322V300.986H218.564V303.216H229.85V310.889H218.564V313.208H231.455ZM245.626 321.996H234.831V292.198H245.626V302.324H253.209V292.198H264.004V321.996H253.209V311.513H245.626V321.996ZM281.681 291.663C291.048 291.663 296.847 297.596 296.847 307.097C296.847 316.598 291.048 322.531 281.681 322.531C272.313 322.531 266.514 316.598 266.514 307.097C266.514 297.596 272.313 291.663 281.681 291.663ZM281.681 300.629C279.049 300.629 277.577 302.949 277.577 307.097C277.577 311.245 279.049 313.565 281.681 313.565C284.313 313.565 285.785 311.245 285.785 307.097C285.785 302.949 284.313 300.629 281.681 300.629ZM299.345 292.198H310.14V313.163H321.872V321.996H299.345V292.198ZM324.654 321.996V292.198H337.992C347.27 292.198 353.47 296.971 353.47 307.097C353.47 317.223 347.181 321.996 337.992 321.996H324.654ZM335.405 301.12V313.074H337.233C340.668 313.074 342.363 311.022 342.363 307.097C342.363 303.127 340.668 301.12 337.278 301.12H335.405ZM379.215 313.208V321.996H355.975V292.198H379.081V300.986H366.324V303.216H377.609V310.889H366.324V313.208H379.215ZM399.006 302.949C399.006 301.521 398.158 300.763 396.508 300.763H393.162V305.224H396.508C398.025 305.224 399.006 304.599 399.006 302.949ZM411.853 321.996H400.344C399.452 320.925 399.095 320.078 398.783 318.249L398.337 315.572C398.069 313.922 397.311 313.387 395.973 313.387H393.162V321.996H382.591V292.198H397.935C404.76 292.198 410.024 294.652 410.024 301.521C410.024 305.714 407.169 308.257 404.091 308.926V309.015C406.678 309.506 408.15 311.067 408.775 313.699L409.801 318.07C410.202 319.765 410.737 320.836 411.853 321.996Z" fill="black"/>
</svg>
