<svg width="609" height="560" viewBox="0 0 609 560" fill="none" xmlns="http://www.w3.org/2000/svg">
<path opacity="0.1" d="M0 48C0 39.1635 7.16344 32 16 32H592C600.837 32 608 39.1634 608 48V513C608 521.837 600.837 529 592 529H16C7.16346 529 0 521.837 0 513V48Z" fill="black"/>
<path opacity="0.3" d="M130.703 290.029H126.247V299.156H113.255V263.293H130.703C139.562 263.293 145.414 267.803 145.414 276.768C145.414 285.466 138.649 290.029 130.703 290.029ZM132.207 276.822C132.207 274.46 130.757 273.44 129.093 273.44H126.247V280.151H129.093C130.703 280.151 132.207 279.345 132.207 276.822ZM148.068 263.293H161.061V288.526H175.18V299.156H148.068V263.293ZM196.032 276.5L193.401 284.768H198.824L196.139 276.5H196.032ZM203.441 299.156L201.777 293.949H190.448L188.784 299.156H176.06L188.945 263.293H203.763L216.648 299.156H203.441ZM215.038 281.225C215.038 269.95 221.803 262.649 233.345 262.649C241.345 262.649 247.465 266.89 249.076 273.171L237.265 278.003C237.05 275.695 236.03 273.493 233.292 273.493C230.607 273.493 228.352 275.587 228.352 281.225C228.352 286.862 230.607 289.009 233.292 289.009C236.03 289.009 237.05 286.754 237.265 284.392L249.076 289.224C247.465 295.559 241.345 299.801 233.345 299.801C221.803 299.801 215.038 292.499 215.038 281.225ZM279.273 288.58V299.156H251.302V263.293H279.112V273.869H263.757V276.554H277.341V285.788H263.757V288.58H279.273ZM296.329 299.156H283.336V263.293H296.329V275.48H305.456V263.293H318.448V299.156H305.456V286.54H296.329V299.156ZM339.724 262.649C350.998 262.649 357.978 269.789 357.978 281.225C357.978 292.66 350.998 299.801 339.724 299.801C328.449 299.801 321.47 292.66 321.47 281.225C321.47 269.789 328.449 262.649 339.724 262.649ZM339.724 273.44C336.556 273.44 334.784 276.232 334.784 281.225C334.784 286.217 336.556 289.009 339.724 289.009C342.891 289.009 344.663 286.217 344.663 281.225C344.663 276.232 342.891 273.44 339.724 273.44ZM360.985 263.293H373.977V288.526H388.097V299.156H360.985V263.293ZM391.446 299.156V263.293H407.499C418.666 263.293 426.128 269.037 426.128 281.225C426.128 293.412 418.558 299.156 407.499 299.156H391.446ZM404.385 274.03V288.419H406.586C410.72 288.419 412.76 285.949 412.76 281.225C412.76 276.446 410.72 274.03 406.64 274.03H404.385ZM457.114 288.58V299.156H429.143V263.293H456.953V273.869H441.599V276.554H455.182V285.788H441.599V288.58H457.114ZM480.935 276.232C480.935 274.514 479.914 273.601 477.928 273.601H473.901V278.97H477.928C479.753 278.97 480.935 278.218 480.935 276.232ZM496.397 299.156H482.545C481.471 297.868 481.042 296.848 480.666 294.646L480.129 291.425C479.807 289.439 478.894 288.794 477.284 288.794H473.901V299.156H461.177V263.293H479.646C487.86 263.293 494.195 266.246 494.195 274.514C494.195 279.56 490.759 282.62 487.055 283.426V283.533C490.169 284.124 491.941 286.003 492.692 289.17L493.927 294.432C494.41 296.472 495.054 297.76 496.397 299.156Z" fill="black"/>
<g opacity="0.2">
<path d="M216.681 433.57C200.14 431.64 184.611 426.495 169.957 418.561C166.941 416.924 164.08 415.072 162.601 411.739C161.336 408.913 160.85 405.892 162.912 403.397C164.878 401.019 167.583 400.239 170.872 401.097C173.791 401.857 176.457 403.065 178.889 404.644C192.356 413.337 207.262 417.216 223.045 418.152C226.645 418.366 230.109 420.043 233.826 419.205C228.649 409.712 230.654 403.182 240.462 399.069C252.157 394.138 261.479 386.029 270.722 377.434C261.381 375.211 256.73 368.896 254.376 360.066C251.281 348.43 250.055 336.481 247.759 324.708C247.078 321.199 246.339 317.71 245.619 314.104C214.015 330.809 190.41 304.729 194.146 281.436C179.804 272.119 175.523 258.942 186.284 242.433C177.936 231.556 179.512 220.173 185.175 208.614C183.093 205.749 181.108 203.04 179.162 200.389C155.109 198.44 139.93 181.911 139.93 157.682C139.93 145.422 139.949 145.519 151.547 142.03C160.207 139.418 169.062 137.703 178.189 136.358C180.018 131.193 180.427 125.677 182.762 120.765C189.262 107.159 197.513 95.1524 212.011 89.0124C214.073 88.1353 215.105 86.4395 216.37 84.8802C225.983 73.1266 238.107 65.7976 253.344 64.4722C260.155 63.8679 266.811 65.7392 273.33 67.5519C275.86 68.2536 277.903 68.7604 280.433 67.4544C295.534 59.6772 310.013 61.2755 323.888 70.7096C324.258 70.963 324.705 71.0604 325.386 71.3528C332.703 68.0977 340.546 65.8561 348.739 65.7197C365.475 65.4273 379.895 71.9766 393.069 81.8199C395.074 83.3208 397.312 84.6658 398.868 86.5565C400.756 88.8175 402.916 89.1684 405.504 88.9735C419.321 87.8624 428.662 95.1719 436.29 105.581C442.771 114.43 446.955 124.488 450.944 134.643C451.586 136.28 451.431 138.171 453.474 139.126C459.312 141.835 461.881 147.196 463.807 152.848C468.089 165.421 470.91 178.207 467.661 191.559C467.174 193.528 467.077 195.847 465.948 197.368C461.939 202.825 462.387 208.576 463.224 214.891C464.527 224.754 463.36 234.558 458.008 243.252C455.965 246.565 456.782 249.898 456.821 253.192C456.977 270.423 450.146 284.243 436.213 293.969C429.09 298.94 422.007 303.306 416.733 310.693C412.238 317.009 404.434 318.919 396.825 319.387C391.162 319.738 385.46 319.465 379.681 319.465C377.52 322.837 374.66 325.371 371.157 328.022C375.146 341.705 379.155 355.486 383.106 369.013C382.191 372.132 379.213 372.229 377.267 373.944C379.33 378.467 380.011 383.262 383.864 387.374C389.488 393.378 390.773 401.564 389.625 409.77C389.099 413.61 387.465 417.119 383.417 419.068C405.232 419.906 426.833 421.095 446.429 409.01C448.823 407.529 451.431 406.106 454.466 405.794C460.052 405.209 463.185 406.574 464.547 410.511C465.695 413.864 464.119 417.723 460.188 420.335C454.544 424.116 448.414 427.001 441.992 429.165C427.514 434.038 412.529 433.395 397.565 433.473C371.176 433.629 344.827 431.601 318.439 432.264C300.263 432.712 282.087 433.297 263.911 433.823C258.618 433.473 253.305 433.239 248.071 434.506C243.828 434.077 239.586 434.213 235.344 434.506C234.565 433.784 233.787 433.804 233.008 434.486H229.681C232.794 436.767 234.896 439.496 239.897 439.086C265.935 436.981 292.051 435.149 318.205 436.357C332.489 437.02 346.773 437.956 361.057 438.813C364.21 439.008 367.168 440.256 370.456 440.217C376.859 440.139 382.969 438.95 388.71 436.007C395.502 432.517 404.103 435.285 407.606 442.809C409.26 446.357 411.42 447.546 414.943 448.559C422.707 450.801 430.55 453.179 437.166 458.188C444.989 464.133 445.009 470.039 436.894 475.633C428.604 481.364 419.029 484.288 409.396 486.568C390.423 491.052 371.196 493.8 351.716 495.164C330.855 496.626 309.993 497.991 289.073 497.328C273.875 496.841 258.618 496.373 243.497 494.872C221.702 492.708 199.965 489.824 179.084 482.651C173.499 480.74 168.089 478.401 163.438 474.639C157.249 469.63 157.269 463.685 163.554 458.851C172.02 452.36 182.159 449.846 192.142 447.058C194.535 446.396 197.007 445.577 199.459 445.538C207.768 445.382 213.276 439.944 219.269 435.363C221.157 434.233 223.337 434.194 226.878 433.609H216.759L216.681 433.57ZM300.36 414.059C298.726 414.137 297.091 414.215 295.456 414.293C289.832 415.579 284.033 415.209 278.37 416.144C284.111 416.456 289.891 418.016 295.515 415.521C298.336 415.365 301.158 415.209 303.98 415.053C305.984 413.552 304.272 413.065 303.221 413.006C302.287 412.967 301.314 413.669 300.36 414.059ZM369.075 414.312C364.093 415.462 358.936 415.228 353.896 416.144C359.053 416.554 364.171 417.743 369.211 415.871C373.667 414.663 379.175 417.099 382.522 411.993C377.949 412.46 373.609 413.961 369.075 414.312ZM339.67 200.506C336.887 213.156 327.877 219.471 315.306 220.407C303.902 221.245 292.771 219.296 282.574 213.546C274.089 208.77 266.324 202.767 257.47 198.654C244.665 192.709 241.221 193.547 233.183 204.853C229.252 210.388 224.173 213.02 217.596 212.825C211.699 212.649 205.9 212.006 200.159 210.31C197.26 209.453 194.457 207.309 191.032 208.4C188.542 212.259 186.771 216.431 185.661 220.836C184.708 224.598 184.63 228.36 186.128 232.2C189.904 241.809 195.897 246.292 206.192 246.702C211.388 246.916 216.642 246.097 221.721 247.969C226.723 249.82 229.272 254.011 228.26 259.137C228.007 260.463 227.482 261.749 227.345 263.094C226.625 270.638 228.299 272.645 235.791 272.626C244.646 272.626 253.325 273.737 262.043 275.296C266.714 276.134 271.287 277.304 275.938 278.122C284.948 279.701 289.988 273.698 286.972 265.219C286.213 263.075 285.162 261.009 284.753 258.806C283.196 250.541 288.061 244.577 296.468 244.012C299.991 243.778 303.318 244.518 306.315 246.078C313.068 249.625 320.424 251.009 327.799 251.925C338.717 253.29 355.569 245.357 355.608 229.334C355.608 228.165 355.783 227.054 357.068 226.411C359.169 225.728 360.298 227.424 361.602 228.594C365.202 231.81 367.926 235.747 370.573 239.743C377.112 249.645 386.161 255.863 398.032 256.194C417.414 256.74 435.142 241.887 431.99 218.088C430.53 207.016 422.649 197.368 413.386 196.159C405.543 195.146 397.545 195.36 389.839 197.816C381.335 200.525 377.17 207.835 378.883 216.996C380.167 223.818 388.126 229.276 395.813 228.925C399.199 228.769 400.892 227.522 400.698 223.974C400.581 221.694 400.561 219.393 400.698 217.132C400.912 213.721 402.274 210.681 405.757 209.881C409.474 209.024 413.074 209.589 414.261 214.228C412.101 219.627 409.591 213.565 407.801 214.131C403.85 216.957 405.037 220.602 405.018 223.896C404.94 230.718 402.916 233.194 396.611 233.876C384.156 235.201 372.83 224.305 373.492 211.772C373.648 208.751 375.146 206.139 375.652 202.767C363.587 203.547 351.599 204.034 339.631 200.525L339.67 200.506ZM412.821 111.779C409.786 113.065 408.851 111.662 408.229 109.732C403.558 95.0354 392.738 86.0302 379.895 78.9741C362.127 69.2087 343.912 67.279 325.445 76.8885C319.509 79.9682 314.8 84.4708 312.484 91.1371C309.312 100.279 314.391 112.364 323.46 117.198C331.03 121.232 336.809 119.147 344.107 109.752C347.454 105.444 350.704 101.058 354.752 97.3355C362.011 90.7082 370.515 88.6616 379.953 90.4548C387.523 91.8972 393.458 99.0897 393.945 106.847C394.47 115.307 390.734 120.394 382.016 123.435C379.603 124.273 377.17 124.468 374.699 124.78C369.542 125.443 364.268 125.482 359.306 127.353C355.647 128.737 353.215 131.193 352.475 135.169C351.58 139.964 354.888 143.356 359.578 142.128C361.952 141.504 364.249 140.393 366.448 139.243C377.598 133.356 387.873 134.721 397.214 143.063C399.258 144.896 401.301 145.636 403.967 145.402C407.139 145.11 410.389 145.461 413.483 144.857C424.147 142.752 434.15 144.584 443.822 149.379C448.064 145.87 447.986 141.29 446.507 136.884C443.102 126.749 438.626 117.042 432.36 108.329C425.977 99.4406 417.862 93.3981 405.835 93.4566C408.579 99.5186 413.386 104.567 412.821 111.798V111.779ZM244.49 138.054C241.668 156.669 246.553 172.691 259.435 185.595C273.349 199.531 290.494 204.268 309.332 197.66C334.163 188.947 340.993 168.578 341.266 143.902C309.487 140.179 277.495 137.781 244.49 138.054ZM287.517 281.007C296.06 284.282 303.396 287.167 310.772 289.915C323.732 294.749 336.323 296.191 347.123 285.14C350.646 287.654 349.108 289.681 347.123 291.455C343.523 294.671 339.261 296.484 334.513 297.556C329.59 298.667 324.705 297.478 319.684 297.809C317.369 306.503 318.906 313.773 325.192 319.971C335.836 330.478 355.978 332.251 368.588 323.831C373.959 320.244 377.734 315.469 378.707 309.115C380.07 300.363 378.922 291.903 374.193 284.126C366.915 272.138 357.827 261.788 346.754 252.666C332.295 259.313 318.167 256.525 304.311 250.464C301.236 249.119 298.161 248.729 295.028 249.216C290.28 249.957 288.237 253.446 289.482 258.163C289.832 259.469 290.299 260.775 290.825 262.022C293.666 268.766 294.172 275.179 287.478 281.007H287.517ZM209.539 140.393C208.547 139.555 207.379 139.691 206.25 139.672C187.316 139.282 168.77 141.777 150.633 147.274C145.087 148.95 144.191 149.944 144.269 155.928C144.425 166.726 147.636 176.589 154.642 184.912C162.893 194.736 176.924 197.29 188.775 192.222C205.297 185.166 215.299 163.432 209.52 140.373L209.539 140.393ZM382.502 314.728C387.212 315.605 391.551 315.566 395.794 314.962C406.166 313.481 415.137 309.621 418.951 298.686C422.921 287.303 421.89 275.725 419.38 264.303C418.212 259.02 415.41 257.948 410.058 259.293C392.232 263.718 377.423 257.987 366.953 242.784C365.007 239.938 363.47 236.644 360.123 234.539C358.78 240.893 354.713 245.22 351.23 249.859C352.864 251.38 354.188 252.627 355.53 253.855C363.645 261.262 370.768 269.527 376.586 278.844C383.475 289.896 386.492 301.708 382.502 314.748V314.728ZM198.602 277.557C198.602 280.539 198.719 283.034 198.583 285.529C198.233 291.942 200.12 297.731 203.837 302.78C210.59 311.96 219.678 316.015 231.023 314.143C242.369 312.292 248.946 305.158 251.573 294.223C253.928 284.399 248.44 277.128 238.554 277.05C228.357 276.972 218.141 276.115 207.982 278.006C205.803 278.415 203.312 278.746 202.631 274.711C208.916 270.91 216.234 273.756 222.753 272.197C223.648 268.844 222.208 265.745 222.772 262.529C224.446 253.075 224.095 253.192 213.645 251.068C212.108 250.756 210.473 250.931 208.878 250.97C202.28 251.107 195.761 250.912 190.332 246.546C180.699 258.046 183.968 270.15 198.583 277.557H198.602ZM240.15 132.889C265.935 132.226 290.669 134.955 315.384 135.968C317.466 129.244 315.228 120.16 311.881 114.021C309.215 109.109 307.833 103.008 302.676 99.9474C290.124 92.521 276.755 89.9091 263.347 97.0236C249.569 104.333 243.556 117.276 240.15 132.908V132.889ZM395.755 191.286C396.961 191.286 397.584 191.364 398.187 191.286C411.342 189.337 423.116 191.189 431.27 203.235C432.204 204.599 433.586 205.32 435.123 205.905C447.188 210.525 458.261 207.387 461.939 194.015C466.22 178.461 463.788 163.374 456.763 149.028C455.848 147.137 454.914 144.759 451.878 144.798C451.255 147.761 449.679 150.236 447.967 152.731C449.387 154.856 450.944 156.844 452.092 159.027C455.206 164.933 457.327 171.054 455.751 177.934C454.466 183.451 451.275 185.205 446.001 182.866C441.876 181.034 439.248 177.642 437.458 173.588C434.072 165.888 427.631 162.614 419.808 161.815C415.585 161.386 411.284 161.737 406.633 161.737C405.855 172.496 403.48 182.749 395.774 191.325L395.755 191.286ZM340.702 197.192C344.418 197.348 347.59 197.134 350.646 197.699C359.228 199.336 367.712 199.18 376.217 197.309C391.337 193.996 403.695 176.063 401.106 160.489C381.802 159.846 362.594 161.269 343.815 164.855C341.772 175.888 340.799 186.277 340.702 197.173V197.192ZM320.035 74.4325C313.671 69.3841 304.817 66.5188 296.974 67.1426C283.936 68.1756 275.062 75.8359 268.718 85.9912C266.811 85.9717 265.916 85.4454 265.779 84.5293C265.04 79.1106 271.501 77.4148 272.026 72.6003C254.921 65.3103 233.183 70.7486 221.137 87.2777C234.818 88.954 240.715 97.9592 242.544 110.941C257.587 86.2446 281.678 83.0284 305.829 95.6982C309.643 84.1005 311.511 81.2547 320.054 74.452L320.035 74.4325ZM239.391 140.939C239.527 138.658 240.442 136.28 238.827 135.832C234.059 134.526 235.052 130.959 235.752 128.113C237.29 121.798 237.27 115.502 236.939 109.109C236.2 95.2498 223.531 89.2658 212.711 94.0803C206.717 96.7507 201.911 100.727 197.785 105.658C190.604 114.254 185.486 123.825 183.638 134.955C191.441 134.955 198.68 135.13 205.92 134.896C210.726 134.74 214.93 135.091 216.039 140.88C223.998 140.198 231.451 140.997 239.391 140.958V140.939ZM185.934 199.258C192.083 202.903 198.33 204.95 204.635 206.685C216.448 209.92 226.976 209.531 233.417 196.452C235.616 192.007 240.247 190.409 245.521 190.331C250.114 190.253 254.084 192.69 260.292 193.216C248.207 182.3 241.746 169.884 239.177 155.187H216.642C212.478 182.749 203.468 190.721 185.934 199.258ZM314.975 296.757C295.359 288.707 275.879 281.202 254.045 279.097C258.034 291.182 256.555 301.259 248.81 310.128C253.228 314.26 258.034 314.436 263.055 313.305C267.025 312.428 270.917 311.181 274.887 310.381C282.437 308.861 289.268 310.05 294.717 316.112C296.838 318.471 299.095 320.732 301.8 322.447C307.853 326.326 313.924 326.15 320.541 322.72C315.092 314.709 311.511 306.6 314.956 296.757H314.975ZM346.656 149.963C362.088 148.852 377.229 147.917 393.361 145.987C385.168 139.672 377.501 139.496 369.542 143.102C365.63 144.876 361.874 146.942 357.379 146.767C351.152 146.533 347.376 142.557 347.513 136.241C347.649 129.672 352.845 123.377 360.006 122.071C364.19 121.31 368.355 120.18 372.753 120.414C376.606 120.628 380.342 119.361 383.767 117.588C388.224 115.268 390.481 110.59 389.508 106.302C387.971 99.4991 381.88 94.4702 374.815 94.4117C367.44 94.3532 361.115 97.16 356.192 102.598C352.397 106.809 349.128 111.487 345.411 115.775C339.378 122.733 332.197 125.891 323.09 122.012C322.35 121.7 321.3 121.544 320.21 122.811C320.696 127.08 321.241 131.739 321.767 136.339C329.687 138.912 338.113 137.255 345.781 140.12C347.007 143.336 345.372 146.63 346.676 149.944L346.656 149.963ZM310.538 407.139C311.881 409.186 313.496 409.712 315.364 409.965C328.227 411.7 341.188 412.032 354.071 411.096C362.341 410.492 370.768 410.024 378.805 407.392C384.156 405.638 386.2 401.876 383.767 397.042C382.619 394.781 381.918 391.916 379.525 390.493C377.443 390.571 376.859 392.228 375.827 393.397C370.884 398.894 366.467 399.108 361.427 393.807C359.306 391.585 357.768 388.778 355.861 386.341C352.125 381.585 347.668 380.611 343.621 384.548C334.202 393.69 323.362 400.492 311.453 405.736C311.122 405.892 310.947 406.437 310.499 407.12L310.538 407.139ZM236.55 408.64C259.435 413.162 281.815 411.681 304.739 408.055C304.719 403.845 308.826 402.208 310.869 399.264C310.168 395.327 308.436 392.364 305.945 389.908C304.252 390.629 303.493 391.76 302.637 392.832C297.772 398.894 293.374 399.167 288.003 393.514C286.135 391.546 284.734 389.148 283.021 387.023C278 380.845 273.933 380.513 268.27 386.068C260.545 393.67 251.651 399.381 241.843 403.825C240.072 404.625 237.757 404.703 236.55 408.659V408.64ZM316.006 398.017C327.177 393.124 335.486 385.581 343.874 377.609C330.641 376.011 325.114 371.43 321.63 358.877C319.023 349.541 316.746 340.126 314.255 330.497C311.122 330.263 308.067 330.614 304.758 329.016C307.463 344.122 313.185 357.571 314.956 371.41C312.737 374.003 309.954 373.827 307.891 375.211C307.347 383.807 313.029 390.025 316.006 398.017ZM424.498 252.198C428.176 252.198 430.413 252.276 432.651 252.198C445.651 251.73 455.264 244.304 457.736 231.654C459.137 224.481 458.728 216.996 457.522 208.712C450.75 214.072 443.218 211.889 435.687 212.532C439.618 227.736 435.921 240.406 424.498 252.198ZM421.267 256.525C427.358 269.039 425.607 281.709 425.587 294.301C442.245 288.668 454.389 266.7 451.547 250.717C442.596 257.656 432.223 256.409 421.287 256.506L421.267 256.525ZM274.575 202.026C286.972 212.766 301.314 216.938 317.388 215.164C326.126 214.209 332.1 209.453 334.649 201.032C336.265 195.691 337.296 190.117 336.206 184.016C319.431 203.547 299.193 210.154 274.595 202.026H274.575ZM291.954 427.157C288.081 425.052 284.714 425.169 281.387 425.15C266.889 425.091 252.391 425.13 237.893 424.896C234.059 424.838 230.284 423.785 226.392 423.922C217.44 424.214 208.858 421.777 200.354 419.594C191.402 417.275 182.82 413.688 174.958 408.562C172.37 406.866 169.49 405.17 166.454 408.075C167.953 411.583 170.93 413.357 173.907 414.877C190.818 423.532 208.566 428.97 227.773 428.834C241.863 428.736 255.952 428.795 270.061 428.834C277.086 428.834 284.053 428.346 291.954 427.177V427.157ZM459.623 414.176C458.67 409.926 456.549 409.965 454.194 411.076C451.158 412.499 448.239 414.215 445.223 415.657C435.123 420.491 424.517 422.811 413.366 424.253C400.192 425.949 387.192 426.105 374.056 425.267C372.558 425.169 370.534 424.545 369.172 427.099C389.605 428.775 409.474 430.276 429.343 426.923C440.377 425.072 450.321 420.53 459.623 414.195V414.176ZM354.752 377.94C358.624 381.059 360.804 385.269 363.723 388.856C367.79 393.865 369.25 393.865 373.317 388.661C374.251 387.472 375.964 386.79 375.983 384.821C374.854 381.78 373.706 378.661 372.558 375.543C366.409 375.309 360.96 377.843 354.771 377.921L354.752 377.94ZM234.137 450.021C234.254 444.369 229.739 439.359 224.271 439.067C220.048 438.833 215.202 443.569 215.027 448.111C214.813 453.647 218.9 457.935 224.621 458.169C230.206 458.403 234.04 455.128 234.137 450.021ZM404.804 449.378C404.609 444.154 399.102 438.735 394.276 439.008C389.722 439.262 385.596 443.92 385.674 448.696C385.772 454.699 390.111 458.481 396.455 458.11C401.476 457.818 404.979 454.153 404.823 449.358L404.804 449.378ZM282.554 378.993C286.291 382.443 288.178 386.984 291.545 390.298C294.016 392.735 296.527 393.358 298.823 389.967C300.341 387.725 302.209 385.796 304.505 384.392C303.279 382.112 304.447 379.168 301.45 376.868C295.69 377.433 289.307 379.09 282.554 379.012V378.993ZM253.714 415.891H246.086C248.538 416.866 250.97 416.807 253.714 415.891ZM326.69 416.008C324.044 415.365 321.708 415.111 319.101 416.144C321.747 416.866 324.082 417.041 326.69 416.008Z" fill="#080808"/>
<path d="M248.031 434.446C253.266 433.179 258.559 433.413 263.872 433.764C258.657 435.518 253.324 434.466 248.031 434.446Z" fill="#EDB2CE"/>
<path d="M216.68 433.57H226.799C223.277 434.175 221.078 434.214 219.19 435.325C218.489 434.525 217.069 434.779 216.68 433.57Z" fill="#EDB2CE"/>
<path d="M232.971 434.447C233.749 433.785 234.547 433.765 235.306 434.467C234.528 434.467 233.749 434.467 232.971 434.447Z" fill="#EDB2CE"/>
<path d="M339.67 200.506C351.638 204.015 363.626 203.527 375.691 202.748C375.185 206.139 373.687 208.751 373.531 211.753C372.85 224.286 384.195 235.182 396.65 233.857C402.955 233.175 404.979 230.699 405.057 223.877C405.096 220.583 403.889 216.938 407.84 214.112C409.63 213.546 412.14 219.608 414.301 214.209C413.113 209.57 409.513 209.024 405.796 209.862C402.313 210.661 400.951 213.702 400.737 217.113C400.6 219.394 400.6 221.694 400.737 223.955C400.931 227.502 399.238 228.75 395.852 228.906C388.146 229.276 380.206 223.799 378.922 216.977C377.19 207.816 381.354 200.506 389.878 197.797C397.584 195.341 405.582 195.126 413.425 196.14C422.707 197.349 430.569 207.016 432.029 218.068C435.162 241.848 417.453 256.721 398.071 256.175C386.2 255.844 377.151 249.626 370.612 239.724C367.966 235.728 365.241 231.791 361.641 228.574C360.337 227.405 359.208 225.729 357.107 226.391C355.803 227.035 355.647 228.146 355.647 229.315C355.608 245.318 338.775 253.271 327.838 251.906C320.463 250.99 313.126 249.606 306.354 246.059C303.357 244.48 300.03 243.739 296.507 243.993C288.101 244.558 283.235 250.522 284.792 258.787C285.201 260.989 286.252 263.075 287.011 265.2C290.027 273.679 284.987 279.682 275.977 278.103C271.326 277.285 266.733 276.115 262.082 275.277C253.364 273.718 244.685 272.587 235.83 272.607C228.338 272.607 226.664 270.618 227.384 263.075C227.521 261.75 228.027 260.444 228.299 259.118C229.292 253.992 226.762 249.801 221.76 247.949C216.681 246.078 211.427 246.897 206.231 246.682C195.937 246.273 189.943 241.79 186.167 232.18C184.65 228.341 184.747 224.598 185.7 220.817C186.81 216.412 188.581 212.24 191.071 208.381C194.516 207.309 197.318 209.453 200.198 210.291C205.939 211.987 211.738 212.63 217.635 212.806C224.232 213 229.311 210.369 233.222 204.833C241.24 193.528 244.704 192.69 257.509 198.635C266.363 202.748 274.128 208.751 282.613 213.527C292.81 219.277 303.941 221.226 315.345 220.388C327.916 219.452 336.926 213.137 339.709 200.487L339.67 200.506ZM278.02 230.563C276.989 227.444 275.588 227.327 272.863 228.458C264.164 232.122 255.037 232.531 245.658 231.849C239.041 231.362 233.359 228.282 227.307 226.469C224.504 229.88 226.45 230.933 229.077 232.161C239.255 236.898 249.978 238.125 260.914 236.586C266.83 235.747 272.883 234.597 278.001 230.563H278.02Z" fill="#EDB2CE"/>
<path d="M412.822 111.779C413.386 104.567 408.599 99.5182 405.835 93.4367C417.862 93.3782 425.977 99.4207 432.36 108.309C438.626 117.022 443.102 126.729 446.507 136.865C447.986 141.27 448.084 145.85 443.822 149.359C434.15 144.564 424.148 142.751 413.483 144.837C410.389 145.441 407.139 145.09 403.967 145.383C401.301 145.616 399.258 144.876 397.215 143.044C387.893 134.72 377.618 133.337 366.448 139.223C364.249 140.373 361.952 141.484 359.578 142.108C354.888 143.336 351.58 139.944 352.475 135.149C353.215 131.173 355.647 128.717 359.306 127.333C364.268 125.462 369.542 125.423 374.699 124.76C377.17 124.448 379.603 124.253 382.016 123.415C390.754 120.374 394.49 115.307 393.945 106.828C393.459 99.0699 387.523 91.8774 379.953 90.435C370.515 88.6222 362.011 90.6884 354.752 97.3156C350.685 101.019 347.455 105.424 344.107 109.732C336.79 119.127 331.03 121.232 323.46 117.178C314.372 112.324 309.312 100.239 312.484 91.1172C314.8 84.4315 319.49 79.9484 325.445 76.8686C343.913 67.2592 362.128 69.1888 379.895 78.9543C392.739 86.0103 403.559 95.0156 408.229 109.712C408.852 111.642 409.786 113.046 412.822 111.759V111.779Z" fill="#EDB2CE"/>
<path d="M244.49 138.054C277.495 137.8 309.487 140.178 341.266 143.901C340.994 168.578 334.182 188.966 309.332 197.66C290.494 204.267 273.35 199.511 259.435 185.594C246.553 172.691 241.668 156.668 244.49 138.054Z" fill="#F9C717"/>
<path d="M287.535 281.026C294.229 275.198 293.724 268.785 290.882 262.041C290.357 260.793 289.89 259.487 289.54 258.181C288.275 253.464 290.337 249.975 295.086 249.235C298.219 248.747 301.294 249.137 304.368 250.482C318.224 256.544 332.333 259.331 346.811 252.685C357.884 261.807 366.972 272.157 374.25 284.145C378.979 291.922 380.108 300.381 378.765 309.133C377.773 315.487 374.017 320.263 368.646 323.849C356.035 332.27 335.894 330.516 325.249 319.99C318.983 313.792 317.426 306.521 319.742 297.828C324.763 297.477 329.647 298.666 334.571 297.574C339.338 296.502 343.581 294.709 347.181 291.473C349.166 289.7 350.703 287.673 347.181 285.158C336.361 296.229 323.79 294.768 310.829 289.934C303.454 287.185 296.117 284.3 287.574 281.026H287.535Z" fill="#EDB2CE"/>
<path d="M209.54 140.394C215.32 163.433 205.298 185.186 188.795 192.242C176.944 197.31 162.913 194.737 154.662 184.932C147.676 176.609 144.445 166.766 144.29 155.948C144.212 149.964 145.107 148.97 150.653 147.294C168.79 141.797 187.336 139.302 206.271 139.692C207.38 139.711 208.548 139.575 209.559 140.413L209.54 140.394Z" fill="#F9C717"/>
<path d="M382.501 314.748C386.491 301.708 383.474 289.896 376.585 278.844C370.767 269.527 363.644 261.262 355.529 253.855C354.186 252.628 352.863 251.38 351.229 249.86C354.712 245.221 358.779 240.893 360.122 234.539C363.469 236.644 365.006 239.938 366.952 242.784C377.422 257.988 392.231 263.718 410.057 259.294C415.409 257.968 418.211 259.021 419.378 264.303C421.889 275.725 422.92 287.304 418.95 298.687C415.136 309.622 406.165 313.462 395.793 314.962C391.55 315.567 387.211 315.606 382.501 314.729V314.748Z" fill="#EDB2CE"/>
<path d="M198.604 277.556C183.97 270.15 180.701 258.045 190.353 246.545C195.782 250.911 202.302 251.106 208.899 250.97C210.494 250.931 212.129 250.755 213.666 251.067C224.136 253.192 224.467 253.075 222.793 262.528C222.229 265.744 223.669 268.844 222.774 272.196C216.255 273.756 208.938 270.91 202.652 274.711C203.333 278.745 205.824 278.414 208.003 278.005C218.142 276.134 228.378 276.991 238.576 277.05C248.461 277.128 253.969 284.379 251.594 294.222C248.967 305.157 242.409 312.271 231.044 314.143C219.699 315.994 210.611 311.94 203.858 302.779C200.141 297.711 198.254 291.941 198.604 285.529C198.74 283.053 198.624 280.558 198.624 277.556H198.604Z" fill="#EDB2CE"/>
<path d="M240.15 132.909C243.556 117.257 249.569 104.334 263.347 97.0243C276.755 89.9098 290.124 92.5217 302.676 99.9481C307.853 103.008 309.215 109.109 311.881 114.021C315.228 120.161 317.466 129.244 315.384 135.969C290.669 134.955 265.916 132.246 240.15 132.889V132.909Z" fill="#EDB2CE"/>
<path d="M395.754 191.285C403.48 182.728 405.834 172.476 406.613 161.697C411.264 161.697 415.564 161.346 419.787 161.775C427.61 162.574 434.052 165.848 437.438 173.548C439.228 177.602 441.836 180.994 445.981 182.826C451.255 185.165 454.446 183.411 455.73 177.894C457.326 171.014 455.205 164.893 452.072 158.987C450.924 156.804 449.347 154.816 447.946 152.691C449.659 150.197 451.255 147.721 451.858 144.758C454.913 144.719 455.828 147.097 456.742 148.988C463.748 163.354 466.181 178.421 461.919 193.975C458.241 207.366 447.148 210.504 435.103 205.865C433.585 205.281 432.184 204.559 431.249 203.195C423.096 191.149 411.322 189.297 398.167 191.246C397.564 191.344 396.941 191.246 395.734 191.246L395.754 191.285Z" fill="#EDB2CE"/>
<path d="M340.703 197.193C340.8 186.297 341.773 175.908 343.817 164.875C362.596 161.289 381.803 159.866 401.108 160.509C403.696 176.083 391.319 194.016 376.218 197.329C367.714 199.201 359.229 199.337 350.647 197.719C347.612 197.134 344.42 197.368 340.703 197.212V197.193Z" fill="#EDB2CE"/>
<path d="M320.034 74.4331C311.51 81.2358 309.642 84.0816 305.808 95.6792C281.658 83.029 257.566 86.2257 242.524 110.922C240.694 97.9403 234.798 88.9545 221.117 87.2587C233.163 70.7491 254.9 65.2914 272.006 72.5814C271.48 77.3959 265.02 79.0917 265.759 84.5104C265.895 85.4265 266.79 85.9528 268.698 85.9723C275.042 75.817 283.916 68.1567 296.954 67.1236C304.796 66.4999 313.651 69.3652 320.014 74.4136L320.034 74.4331Z" fill="#EDB2CE"/>
<path d="M239.39 140.938C231.451 140.977 223.978 140.178 216.038 140.86C214.929 135.071 210.725 134.72 205.919 134.876C198.68 135.11 191.44 134.934 183.637 134.934C185.485 123.804 190.604 114.234 197.784 105.638C201.91 100.707 206.717 96.7303 212.71 94.0599C223.53 89.2454 236.199 95.2294 236.938 109.088C237.269 115.481 237.308 121.777 235.751 128.093C235.051 130.938 234.078 134.505 238.826 135.811C240.422 136.26 239.507 138.638 239.39 140.918V140.938Z" fill="#EDB2CE"/>
<path d="M185.932 199.278C203.465 190.741 212.475 182.769 216.64 155.207H239.175C241.744 169.904 248.205 182.32 260.289 193.236C254.082 192.709 250.112 190.273 245.519 190.351C240.245 190.429 235.614 192.027 233.415 196.471C226.973 209.55 216.465 209.94 204.633 206.705C198.328 204.97 192.062 202.943 185.932 199.278Z" fill="#EDB2CE"/>
<path d="M314.952 296.777C311.508 306.62 315.088 314.729 320.537 322.74C313.921 326.19 307.849 326.346 301.797 322.467C299.092 320.732 296.835 318.491 294.713 316.132C289.265 310.07 282.434 308.881 274.883 310.402C270.914 311.201 267.021 312.448 263.052 313.325C258.031 314.436 253.224 314.261 248.807 310.148C256.532 301.299 258.011 291.222 254.041 279.117C275.876 281.242 295.336 288.746 314.972 296.777H314.952Z" fill="#EDB2CE"/>
<path d="M346.636 149.982C345.332 146.669 346.967 143.375 345.741 140.159C338.073 137.293 329.647 138.95 321.727 136.377C321.201 131.777 320.656 127.118 320.17 122.85C321.26 121.583 322.311 121.719 323.05 122.051C332.157 125.929 339.338 122.772 345.371 115.813C349.088 111.525 352.357 106.827 356.152 102.637C361.075 97.179 367.4 94.3916 374.776 94.4501C381.84 94.5086 387.931 99.5375 389.468 106.34C390.441 110.648 388.184 115.326 383.727 117.626C380.302 119.4 376.546 120.667 372.713 120.452C368.315 120.218 364.15 121.349 359.966 122.109C352.805 123.415 347.609 129.711 347.473 136.28C347.336 142.595 351.131 146.571 357.339 146.805C361.834 146.981 365.59 144.915 369.502 143.141C377.461 139.535 385.128 139.71 393.321 146.026C377.189 147.955 362.048 148.891 346.616 150.002L346.636 149.982Z" fill="#EDB2CE"/>
<path d="M310.5 407.16C310.948 406.477 311.103 405.912 311.454 405.776C323.363 400.513 334.203 393.73 343.621 384.588C347.669 380.651 352.126 381.625 355.862 386.381C357.789 388.818 359.306 391.605 361.428 393.847C366.468 399.148 370.866 398.934 375.828 393.437C376.86 392.287 377.443 390.63 379.526 390.533C381.9 391.956 382.62 394.821 383.768 397.082C386.201 401.916 384.157 405.678 378.806 407.432C370.769 410.064 362.342 410.532 354.072 411.136C341.189 412.072 328.228 411.74 315.365 410.005C313.497 409.752 311.882 409.245 310.539 407.179L310.5 407.16Z" fill="#F9C717"/>
<path d="M236.531 408.66C237.738 404.722 240.054 404.625 241.824 403.826C251.613 399.382 260.526 393.67 268.252 386.069C273.914 380.494 277.982 380.845 283.002 387.024C284.715 389.129 286.116 391.546 287.984 393.515C293.355 399.167 297.773 398.914 302.618 392.832C303.475 391.76 304.253 390.63 305.927 389.909C308.418 392.384 310.15 395.327 310.85 399.265C308.807 402.227 304.701 403.845 304.72 408.055C281.796 411.681 259.417 413.143 236.531 408.64V408.66Z" fill="#F9C717"/>
<path d="M424.479 252.197C435.902 240.405 439.599 227.735 435.668 212.531C443.199 211.869 450.73 214.071 457.503 208.711C458.709 216.995 459.118 224.48 457.717 231.653C455.265 244.303 445.651 251.729 432.632 252.197C430.394 252.275 428.157 252.197 424.479 252.197Z" fill="#EDB2CE"/>
<path d="M421.266 256.525C432.202 256.428 442.594 257.675 451.526 250.736C454.387 266.72 442.244 288.687 425.566 294.32C425.586 281.728 427.357 269.039 421.246 256.545L421.266 256.525Z" fill="#EDB2CE"/>
<path d="M274.576 202.046C299.174 210.174 319.432 203.566 336.187 184.035C337.277 190.156 336.246 195.711 334.631 201.052C332.081 209.472 326.107 214.228 317.369 215.183C301.295 216.957 286.953 212.786 274.557 202.046H274.576Z" fill="#EDB2CE"/>
<path d="M291.953 427.177C284.052 428.347 277.085 428.854 270.06 428.834C255.97 428.815 241.862 428.737 227.773 428.834C208.565 428.97 190.817 423.532 173.906 414.878C170.929 413.357 167.952 411.584 166.453 408.075C169.489 405.19 172.369 406.867 174.957 408.562C182.819 413.689 191.401 417.275 200.353 419.595C208.857 421.797 217.439 424.214 226.391 423.922C230.283 423.805 234.078 424.838 237.892 424.897C252.39 425.111 266.888 425.092 281.386 425.15C284.713 425.15 288.08 425.053 291.953 427.158V427.177Z" fill="#F9C717"/>
<path d="M459.621 414.195C450.319 420.529 440.375 425.071 429.341 426.923C409.492 430.275 389.623 428.775 369.17 427.098C370.532 424.545 372.556 425.169 374.054 425.266C387.19 426.104 400.19 425.948 413.364 424.252C424.515 422.81 435.121 420.49 445.221 415.656C448.257 414.214 451.156 412.499 454.192 411.076C456.547 409.965 458.668 409.945 459.621 414.175V414.195Z" fill="#F9C717"/>
<path d="M354.752 377.98C360.94 377.902 366.389 375.348 372.539 375.602C373.687 378.72 374.835 381.839 375.964 384.88C375.964 386.848 374.232 387.531 373.298 388.72C369.25 393.905 367.771 393.905 363.704 388.915C360.785 385.309 358.605 381.118 354.732 377.999L354.752 377.98Z" fill="#FEFEFE"/>
<path d="M234.136 450.041C234.019 455.148 230.205 458.422 224.62 458.188C218.898 457.955 214.812 453.666 215.026 448.131C215.201 443.589 220.046 438.853 224.269 439.086C229.738 439.379 234.252 444.408 234.136 450.041ZM225.32 444.057C222.109 443.92 219.015 446.513 219.365 448.871C219.793 451.756 221.428 453.764 224.658 453.861C227.733 453.939 229.329 451.99 229.426 449.359C229.543 446.454 228.025 444.252 225.32 444.057Z" fill="#FEFEFE"/>
<path d="M404.802 449.397C404.978 454.192 401.475 457.857 396.434 458.149C390.09 458.519 385.751 454.738 385.653 448.734C385.576 443.959 389.701 439.3 394.255 439.047C399.101 438.774 404.588 444.173 404.783 449.417L404.802 449.397ZM395.89 443.959C392.095 444.134 389.351 446.941 389.954 449.319C390.674 452.146 392.484 454.095 395.734 453.802C398.692 453.53 400.326 451.483 400.112 448.871C399.898 446.045 398.205 443.803 395.89 443.959Z" fill="#FEFEFE"/>
<path d="M282.553 378.994C289.305 379.072 295.688 377.415 301.449 376.85C304.446 379.15 303.278 382.073 304.504 384.373C302.208 385.777 300.339 387.707 298.822 389.948C296.525 393.34 294.015 392.716 291.543 390.28C288.177 386.966 286.289 382.424 282.553 378.974V378.994Z" fill="#FEFEFE"/>
<path d="M369.072 414.312C373.626 413.961 377.966 412.46 382.519 411.992C379.172 417.099 373.665 414.663 369.208 415.871C369.17 415.345 369.111 414.838 369.072 414.312Z" fill="#FEFEFE"/>
<path d="M295.512 415.521C289.888 418.016 284.108 416.457 278.367 416.145C284.03 415.209 289.849 415.599 295.453 414.293C295.551 414.702 295.57 415.112 295.512 415.521Z" fill="#EDB2CE"/>
<path d="M369.074 414.312C369.112 414.839 369.171 415.346 369.21 415.872C364.17 417.743 359.032 416.554 353.895 416.145C358.915 415.229 364.092 415.463 369.074 414.312Z" fill="#EDB2CE"/>
<path d="M253.714 415.91C250.97 416.826 248.538 416.885 246.086 415.91H253.714Z" fill="#FEFEFE"/>
<path d="M295.515 415.52C295.574 415.111 295.554 414.702 295.457 414.292C297.092 414.215 298.726 414.137 300.361 414.059C301.587 414.292 303.008 413.883 303.981 415.053C301.159 415.209 298.337 415.365 295.515 415.52Z" fill="#FEFEFE"/>
<path d="M326.689 416.028C324.081 417.061 321.727 416.886 319.1 416.164C321.707 415.131 324.043 415.385 326.689 416.028Z" fill="#FEFEFE"/>
<path d="M303.981 415.052C303.008 413.883 301.587 414.292 300.361 414.058C301.315 413.688 302.288 412.966 303.222 413.005C304.273 413.044 305.966 413.532 303.981 415.052Z" fill="#EDB2CE"/>
<path d="M278.019 230.562C272.901 234.616 266.849 235.766 260.933 236.585C249.996 238.125 239.293 236.897 229.096 232.16C226.469 230.932 224.523 229.88 227.325 226.469C233.358 228.281 239.06 231.381 245.676 231.848C255.056 232.531 264.163 232.121 272.882 228.457C275.606 227.307 277.007 227.443 278.039 230.562H278.019Z" fill="#080808"/>
<path d="M225.322 444.056C228.027 444.231 229.525 446.453 229.428 449.358C229.331 451.989 227.735 453.938 224.66 453.86C221.43 453.782 219.776 451.755 219.367 448.87C219.017 446.512 222.13 443.92 225.322 444.056Z" fill="#080808"/>
<path d="M395.892 443.959C398.227 443.803 399.901 446.044 400.115 448.871C400.329 451.483 398.694 453.549 395.736 453.802C392.486 454.095 390.696 452.145 389.956 449.319C389.353 446.941 392.097 444.134 395.892 443.959Z" fill="#080808"/>
</g>
</svg>
