<svg width="204" height="48" viewBox="0 0 204 48" fill="none" xmlns="http://www.w3.org/2000/svg">
<g opacity="0.3" clip-path="url(#clip0_1_1133)">
<path d="M118.32 25.5437C118.32 20.8034 116.253 16.6152 109.259 16.6152C105.672 16.6152 102.821 17.6187 101.276 18.4971L102.409 22.3001C103.831 21.4242 106.102 20.7028 108.244 20.7028C111.785 20.6979 112.365 22.6632 112.365 23.9268V24.2311C104.636 24.2188 99.751 26.8392 99.751 32.1756C99.751 35.4364 102.231 38.4935 106.567 38.4935C109.212 38.4935 111.447 37.4459 112.782 35.7922H112.912C112.912 35.7922 113.793 39.4062 118.66 38.0249C118.413 36.5111 118.32 34.9163 118.32 32.978V25.5437ZM112.555 30.5489C112.555 30.9317 112.522 31.3292 112.407 31.6702C111.962 33.1301 110.427 34.3519 108.517 34.3519C106.904 34.3519 105.639 33.4564 105.639 31.5794C105.639 28.7088 108.869 27.9187 112.555 27.9384" fill="black"/>
<path d="M0 10.165C0 10.165 5.048 30.4314 5.85062 33.7142C6.7957 37.5515 8.48839 38.9697 13.3739 38.0251L16.5293 25.458C17.3269 22.3445 17.8694 20.1117 18.3845 16.9393H18.4719C18.8295 20.1436 19.3446 22.3445 19.9971 25.4678C19.9971 25.4678 21.2847 31.1772 21.9524 34.1681C22.6024 37.159 24.4326 39.0458 29.2256 38.0251L36.7365 10.165H30.6733L28.0955 22.2169C27.4129 25.7083 26.7928 28.4587 26.3103 31.6581H26.2228C25.7878 28.493 25.2352 25.8555 24.5251 22.4352L21.8549 10.165H15.5292L12.6788 22.1212C11.8662 25.7721 11.1062 28.6991 10.6286 31.798H10.5461C10.0536 28.8905 9.38601 25.1881 8.67838 21.6746C8.67838 21.6746 6.98569 13.1142 6.38817 10.165" fill="black"/>
<path d="M53.634 25.5437C53.634 20.8034 51.5612 16.6152 44.568 16.6152C40.9902 16.6152 38.1349 17.6187 36.5897 18.4971L37.7223 22.3001C39.14 21.4242 41.4078 20.7028 43.558 20.7028C47.0983 20.6979 47.6784 22.6632 47.6784 23.9268V24.2311C39.9501 24.2188 35.0596 26.8392 35.0596 32.1756C35.0596 35.4364 37.5498 38.4935 41.8653 38.4935C44.5355 38.4935 46.7508 37.4459 48.086 35.7922H48.2209C48.2209 35.7922 49.106 39.4062 53.969 38.0249C53.719 36.5111 53.634 34.9163 53.634 32.978V25.5437ZM47.8635 30.5489C47.8635 30.9317 47.831 31.3292 47.7209 31.6702C47.2707 33.1301 45.7357 34.3519 43.8205 34.3519C42.2178 34.3519 40.9477 33.4564 40.9477 31.5794C40.9477 28.7088 44.1779 27.9187 47.8635 27.9384" fill="black"/>
<path d="M56.7793 10.165V38.0153H62.5499V32.1096V10.165H56.7793Z" fill="black"/>
<path d="M136.031 10.165V30.7135C136.031 33.5498 136.574 35.5274 137.741 36.7394C138.767 37.8018 140.444 38.4937 142.442 38.4937C144.157 38.4937 145.835 38.1698 146.627 37.8877L146.557 33.4639C145.965 33.5989 145.287 33.7142 144.357 33.7142C142.387 33.7142 141.737 32.4899 141.737 29.9431V22.077H146.762V16.7553H141.737V10.165" fill="black"/>
<path d="M121.116 17.098V38.0243H127.082V27.3072C127.082 26.7306 127.119 26.2326 127.212 25.7713C127.657 23.5116 129.404 22.0812 131.922 22.0812C132.625 22.0812 133.102 22.1572 133.633 22.2382V16.7521C133.187 16.6736 132.885 16.6318 132.337 16.6318C130.105 16.6318 127.574 18.023 126.507 21.0531H126.359V17.098" fill="black"/>
<path d="M65.9014 17.098V38.0243H71.7144V25.7419C71.7144 25.1653 71.7794 24.5764 71.9869 24.044C72.4595 22.8001 73.6322 21.3598 75.5148 21.3598C77.855 21.3598 78.9602 23.2981 78.9602 26.0952V38.0243H84.7584V25.5947C84.7584 25.0524 84.8359 24.3875 84.9983 23.9066C85.4634 22.4958 86.7335 21.3598 88.4888 21.3598C90.854 21.3598 91.9992 23.2564 91.9992 26.554V38.0243H97.7922V25.6854C97.7922 19.2032 94.4318 16.6318 90.6164 16.6318C88.9388 16.6318 87.6037 17.0367 86.4035 17.7629C85.3883 18.3739 84.4983 19.235 83.7007 20.3612H83.6132C82.6956 18.1089 80.5404 16.6318 77.725 16.6318C74.1147 16.6318 72.4745 18.4205 71.5094 19.9319H71.4218V17.098" fill="black"/>
<path d="M177.982 16.1591C179.123 16.1591 180.083 15.5751 180.208 14.8243L181.338 2.26217C181.338 1.01822 179.845 0 177.982 0C176.11 0 174.627 1.01822 174.627 2.26217L175.767 14.8243C175.887 15.5751 176.842 16.1591 177.982 16.1591Z" fill="black"/>
<path d="M171.048 20.0902C171.613 19.1087 171.581 18.0194 170.971 17.5336L160.42 10.2931C159.322 9.66504 157.679 10.4134 156.739 11.9984C155.802 13.5809 155.992 15.3573 157.067 15.9731L168.748 21.2875C169.496 21.5623 170.473 21.0519 171.048 20.0803" fill="black"/>
<path d="M184.915 20.0796C185.512 21.0512 186.49 21.5615 187.218 21.3015L198.899 15.9723C199.984 15.3442 200.146 13.585 199.229 12.0025C198.291 10.4175 196.639 9.67409 195.543 10.2899L184.99 17.523C184.405 18.0161 184.362 19.1104 184.927 20.0894" fill="black"/>
<path d="M177.982 31.8506C179.123 31.8506 180.083 32.4345 180.208 33.1853L181.338 45.7475C181.338 46.9914 179.845 47.9998 177.982 47.9998C176.11 47.9998 174.627 46.9914 174.627 45.7475L175.767 33.1853C175.887 32.4345 176.842 31.8506 177.982 31.8506Z" fill="black"/>
<path d="M184.915 27.9311C185.512 26.957 186.49 26.4369 187.218 26.719L198.899 32.0383C199.984 32.6541 200.146 34.4281 199.229 36.0131C198.291 37.5858 196.639 38.3341 195.543 37.7183L184.99 30.4754C184.405 29.9871 184.362 28.8978 184.927 27.9311" fill="black"/>
<path d="M171.048 27.9206C171.613 28.8996 171.581 29.9865 170.971 30.4772L160.42 37.7078C159.322 38.3359 157.679 37.5851 156.739 36.0124C155.802 34.4299 155.992 32.6535 157.067 32.0377L168.748 26.7184C169.496 26.4387 170.473 26.9539 171.048 27.9206Z" fill="black"/>
<path d="M202.318 36.6162H202.463C202.66 36.6162 202.74 36.6775 202.763 36.8321C202.805 37.0039 202.828 37.1192 202.87 37.1682H203.246C203.213 37.1314 203.17 37.0382 203.148 36.8223C203.105 36.6358 203.008 36.5303 202.87 36.4935V36.4592C203.06 36.4175 203.17 36.2923 203.17 36.1378C203.17 35.9979 203.105 35.8973 203.04 35.8335C202.915 35.7746 202.796 35.728 202.53 35.728C202.295 35.728 202.123 35.7476 201.985 35.7795V37.1682H202.318V36.6162ZM202.328 35.9832L202.498 35.9611C202.698 35.9611 202.805 36.0519 202.805 36.1795C202.805 36.3218 202.66 36.388 202.475 36.388H202.328V35.9832ZM202.541 35.041C201.72 35.041 201.07 35.6691 201.07 36.4395C201.07 37.2296 201.72 37.8577 202.541 37.8577C203.371 37.8577 204.001 37.2296 204.001 36.4395C204.001 35.6691 203.371 35.041 202.541 35.041ZM202.541 35.3232C203.17 35.3232 203.638 35.8237 203.638 36.4395C203.638 37.0603 203.17 37.5755 202.541 37.5657C201.91 37.5657 201.433 37.0603 201.433 36.4395C201.433 35.8237 201.91 35.3232 202.53 35.3232" fill="black"/>
</g>
<defs>
<clipPath id="clip0_1_1133">
<rect width="204" height="48" fill="white"/>
</clipPath>
</defs>
</svg>
